<svg width="24" height="24" viewBox="0 0 24 24" fill="none" xmlns="http://www.w3.org/2000/svg">
<path d="M7.84999 13L10.7 15.85C10.9 16.05 10.996 16.2833 10.988 16.55C10.98 16.8166 10.884 17.05 10.7 17.25C10.5 17.45 10.2627 17.5543 9.98799 17.563C9.71333 17.5716 9.47566 17.4756 9.27499 17.275L4.69999 12.7C4.49999 12.5 4.39999 12.2666 4.39999 12C4.39999 11.7333 4.49999 11.5 4.69999 11.3L9.27499 6.72498C9.47499 6.52498 9.71266 6.42931 9.98799 6.43798C10.2633 6.44665 10.5007 6.55065 10.7 6.74998C10.8833 6.94998 10.9793 7.18331 10.988 7.44998C10.9967 7.71665 10.9007 7.94998 10.7 8.14998L7.84999 11H19C19.2833 11 19.521 11.096 19.713 11.288C19.905 11.48 20.0007 11.7173 20 12C19.9993 12.2826 19.9033 12.5203 19.712 12.713C19.5207 12.9056 19.2833 13.0013 19 13H7.84999Z" fill="black"/>
</svg>